{"accessors" : [{"bufferView" : 0, "byteOffset" : 0, "componentType" : 5123, "count" : 1080, "type" : "SCALAR", "max" : [207], "min" : [0]}, {"bufferView" : 1, "byteOffset" : 0, "componentType" : 5126, "count" : 208, "type" : "VEC3", "max" : [122.07945251464844, 1406.4915771484375, 122.07945251464844], "min" : [-122.07945251464844, -1317.81591796875, -122.07945251464844], "name" : "POSITION"}, {"bufferView" : 1, "byteOffset" : 12, "componentType" : 5126, "count" : 208, "type" : "VEC2", "max" : [0.19283999502658844, 0.9922800064086914], "min" : [0.004610000178217888, 0.007719993591308594], "name" : "TEXCOORD_0"}, {"bufferView" : 0, "byteOffset" : 2160, "componentType" : 5123, "count" : 168, "type" : "SCALAR", "max" : [67], "min" : [0]}, {"bufferView" : 2, "byteOffset" : 0, "componentType" : 5126, "count" : 68, "type" : "VEC3", "max" : [310.7031555175781, 144.62579345703125, 310.7031555175781], "min" : [-310.7031555175781, -1137.795166015625, -310.7031555175781], "name" : "POSITION"}, {"bufferView" : 2, "byteOffset" : 12, "componentType" : 5126, "count" : 68, "type" : "VEC2", "max" : [0.9787799715995789, 0.9926699995994568], "min" : [0.007269999943673611, 0.007330000400543213], "name" : "TEXCOORD_0"}], "asset" : {"generator" : "Aspose.3D 24.4.1", "version" : "2.0"}, "buffers" : [{"uri" : "data:application/octet-stream;base64,", "byteLength" : 8028}], "bufferViews" : [{"buffer" : 0, "byteOffset" : 0, "byteLength" : 2496, "target" : 34963}, {"buffer" : 0, "byteOffset" : 2500, "byteLength" : 4160, "byteStride" : 20, "target" : 34962}, {"buffer" : 0, "byteOffset" : 6664, "byteLength" : 1360, "byteStride" : 20, "target" : 34962}], "meshes" : [{"primitives" : [{"attributes" : {"POSITION" : 1, "TEXCOORD_0" : 2}, "indices" : 0, "mode" : 4}], "name" : ""}, {"primitives" : [{"attributes" : {"POSITION" : 4, "TEXCOORD_0" : 5}, "indices" : 3, "mode" : 4}], "name" : ""}], "nodes" : [{"mesh" : 0, "name" : "sam_body"}, {"mesh" : 1, "name" : "fin"}], "scene" : 0, "scenes" : [{"nodes" : [0, 1]}]}